<?xml version='1.0' encoding='utf-8'?>
<svg xmlns:xlink="http://www.w3.org/1999/xlink" xmlns="http://www.w3.org/2000/svg" id="chart-8abdf2d9-be0b-4a3f-97ea-caa405c4065e" class="pygal-chart" viewBox="0 0 800 600"><!--Generated with pygal 3.0.0 (etree) ©Kozea 2012-2016 on 2022-03-31--><!--http://pygal.org--><!--http://github.com/Kozea/pygal--><defs><style type="text/css">#chart-8abdf2d9-be0b-4a3f-97ea-caa405c4065e{-webkit-user-select:none;-webkit-font-smoothing:antialiased;font-family:Consolas,"Liberation Mono",Menlo,Courier,monospace}#chart-8abdf2d9-be0b-4a3f-97ea-caa405c4065e .title{font-family:Consolas,"Liberation Mono",Menlo,Courier,monospace;font-size:16px}#chart-8abdf2d9-be0b-4a3f-97ea-caa405c4065e .legends .legend text{font-family:Consolas,"Liberation Mono",Menlo,Courier,monospace;font-size:14px}#chart-8abdf2d9-be0b-4a3f-97ea-caa405c4065e .axis text{font-family:Consolas,"Liberation Mono",Menlo,Courier,monospace;font-size:10px}#chart-8abdf2d9-be0b-4a3f-97ea-caa405c4065e .axis text.major{font-family:Consolas,"Liberation Mono",Menlo,Courier,monospace;font-size:10px}#chart-8abdf2d9-be0b-4a3f-97ea-caa405c4065e .text-overlay text.value{font-family:Consolas,"Liberation Mono",Menlo,Courier,monospace;font-size:16px}#chart-8abdf2d9-be0b-4a3f-97ea-caa405c4065e .text-overlay text.label{font-family:Consolas,"Liberation Mono",Menlo,Courier,monospace;font-size:10px}#chart-8abdf2d9-be0b-4a3f-97ea-caa405c4065e .tooltip{font-family:Consolas,"Liberation Mono",Menlo,Courier,monospace;font-size:14px}#chart-8abdf2d9-be0b-4a3f-97ea-caa405c4065e text.no_data{font-family:Consolas,"Liberation Mono",Menlo,Courier,monospace;font-size:64px}
#chart-8abdf2d9-be0b-4a3f-97ea-caa405c4065e{background-color:rgba(249,249,249,1)}#chart-8abdf2d9-be0b-4a3f-97ea-caa405c4065e path,#chart-8abdf2d9-be0b-4a3f-97ea-caa405c4065e line,#chart-8abdf2d9-be0b-4a3f-97ea-caa405c4065e rect,#chart-8abdf2d9-be0b-4a3f-97ea-caa405c4065e circle{-webkit-transition:150ms;-moz-transition:150ms;transition:150ms}#chart-8abdf2d9-be0b-4a3f-97ea-caa405c4065e .graph &gt; .background{fill:rgba(249,249,249,1)}#chart-8abdf2d9-be0b-4a3f-97ea-caa405c4065e .plot &gt; .background{fill:rgba(255,255,255,1)}#chart-8abdf2d9-be0b-4a3f-97ea-caa405c4065e .graph{fill:rgba(0,0,0,.87)}#chart-8abdf2d9-be0b-4a3f-97ea-caa405c4065e text.no_data{fill:rgba(0,0,0,1)}#chart-8abdf2d9-be0b-4a3f-97ea-caa405c4065e .title{fill:rgba(0,0,0,1)}#chart-8abdf2d9-be0b-4a3f-97ea-caa405c4065e .legends .legend text{fill:rgba(0,0,0,.87)}#chart-8abdf2d9-be0b-4a3f-97ea-caa405c4065e .legends .legend:hover text{fill:rgba(0,0,0,1)}#chart-8abdf2d9-be0b-4a3f-97ea-caa405c4065e .axis .line{stroke:rgba(0,0,0,1)}#chart-8abdf2d9-be0b-4a3f-97ea-caa405c4065e .axis .guide.line{stroke:rgba(0,0,0,.54)}#chart-8abdf2d9-be0b-4a3f-97ea-caa405c4065e .axis .major.line{stroke:rgba(0,0,0,.87)}#chart-8abdf2d9-be0b-4a3f-97ea-caa405c4065e .axis text.major{fill:rgba(0,0,0,1)}#chart-8abdf2d9-be0b-4a3f-97ea-caa405c4065e .axis.y .guides:hover .guide.line,#chart-8abdf2d9-be0b-4a3f-97ea-caa405c4065e .line-graph .axis.x .guides:hover .guide.line,#chart-8abdf2d9-be0b-4a3f-97ea-caa405c4065e .stackedline-graph .axis.x .guides:hover .guide.line,#chart-8abdf2d9-be0b-4a3f-97ea-caa405c4065e .xy-graph .axis.x .guides:hover .guide.line{stroke:rgba(0,0,0,1)}#chart-8abdf2d9-be0b-4a3f-97ea-caa405c4065e .axis .guides:hover text{fill:rgba(0,0,0,1)}#chart-8abdf2d9-be0b-4a3f-97ea-caa405c4065e .reactive{fill-opacity:.7;stroke-opacity:.8;stroke-width:1}#chart-8abdf2d9-be0b-4a3f-97ea-caa405c4065e .ci{stroke:rgba(0,0,0,.87)}#chart-8abdf2d9-be0b-4a3f-97ea-caa405c4065e .reactive.active,#chart-8abdf2d9-be0b-4a3f-97ea-caa405c4065e .active .reactive{fill-opacity:.8;stroke-opacity:.9;stroke-width:4}#chart-8abdf2d9-be0b-4a3f-97ea-caa405c4065e .ci .reactive.active{stroke-width:1.5}#chart-8abdf2d9-be0b-4a3f-97ea-caa405c4065e .series text{fill:rgba(0,0,0,1)}#chart-8abdf2d9-be0b-4a3f-97ea-caa405c4065e .tooltip rect{fill:rgba(255,255,255,1);stroke:rgba(0,0,0,1);-webkit-transition:opacity 150ms;-moz-transition:opacity 150ms;transition:opacity 150ms}#chart-8abdf2d9-be0b-4a3f-97ea-caa405c4065e .tooltip .label{fill:rgba(0,0,0,.87)}#chart-8abdf2d9-be0b-4a3f-97ea-caa405c4065e .tooltip .label{fill:rgba(0,0,0,.87)}#chart-8abdf2d9-be0b-4a3f-97ea-caa405c4065e .tooltip .legend{font-size:.8em;fill:rgba(0,0,0,.54)}#chart-8abdf2d9-be0b-4a3f-97ea-caa405c4065e .tooltip .x_label{font-size:.6em;fill:rgba(0,0,0,1)}#chart-8abdf2d9-be0b-4a3f-97ea-caa405c4065e .tooltip .xlink{font-size:.5em;text-decoration:underline}#chart-8abdf2d9-be0b-4a3f-97ea-caa405c4065e .tooltip .value{font-size:1.5em}#chart-8abdf2d9-be0b-4a3f-97ea-caa405c4065e .bound{font-size:.5em}#chart-8abdf2d9-be0b-4a3f-97ea-caa405c4065e .max-value{font-size:.75em;fill:rgba(0,0,0,.54)}#chart-8abdf2d9-be0b-4a3f-97ea-caa405c4065e .map-element{fill:rgba(255,255,255,1);stroke:rgba(0,0,0,.54) !important}#chart-8abdf2d9-be0b-4a3f-97ea-caa405c4065e .map-element .reactive{fill-opacity:inherit;stroke-opacity:inherit}#chart-8abdf2d9-be0b-4a3f-97ea-caa405c4065e .color-0,#chart-8abdf2d9-be0b-4a3f-97ea-caa405c4065e .color-0 a:visited{stroke:#F44336;fill:#F44336}#chart-8abdf2d9-be0b-4a3f-97ea-caa405c4065e .text-overlay .color-0 text{fill:black}
#chart-8abdf2d9-be0b-4a3f-97ea-caa405c4065e text.no_data{text-anchor:middle}#chart-8abdf2d9-be0b-4a3f-97ea-caa405c4065e .guide.line{fill:none}#chart-8abdf2d9-be0b-4a3f-97ea-caa405c4065e .centered{text-anchor:middle}#chart-8abdf2d9-be0b-4a3f-97ea-caa405c4065e .title{text-anchor:middle}#chart-8abdf2d9-be0b-4a3f-97ea-caa405c4065e .legends .legend text{fill-opacity:1}#chart-8abdf2d9-be0b-4a3f-97ea-caa405c4065e .axis.x text{text-anchor:middle}#chart-8abdf2d9-be0b-4a3f-97ea-caa405c4065e .axis.x:not(.web) text[transform]{text-anchor:start}#chart-8abdf2d9-be0b-4a3f-97ea-caa405c4065e .axis.x:not(.web) text[transform].backwards{text-anchor:end}#chart-8abdf2d9-be0b-4a3f-97ea-caa405c4065e .axis.y text{text-anchor:end}#chart-8abdf2d9-be0b-4a3f-97ea-caa405c4065e .axis.y text[transform].backwards{text-anchor:start}#chart-8abdf2d9-be0b-4a3f-97ea-caa405c4065e .axis.y2 text{text-anchor:start}#chart-8abdf2d9-be0b-4a3f-97ea-caa405c4065e .axis.y2 text[transform].backwards{text-anchor:end}#chart-8abdf2d9-be0b-4a3f-97ea-caa405c4065e .axis .guide.line{stroke-dasharray:4,4;stroke:black}#chart-8abdf2d9-be0b-4a3f-97ea-caa405c4065e .axis .major.guide.line{stroke-dasharray:6,6;stroke:black}#chart-8abdf2d9-be0b-4a3f-97ea-caa405c4065e .horizontal .axis.y .guide.line,#chart-8abdf2d9-be0b-4a3f-97ea-caa405c4065e .horizontal .axis.y2 .guide.line,#chart-8abdf2d9-be0b-4a3f-97ea-caa405c4065e .vertical .axis.x .guide.line{opacity:0}#chart-8abdf2d9-be0b-4a3f-97ea-caa405c4065e .horizontal .axis.always_show .guide.line,#chart-8abdf2d9-be0b-4a3f-97ea-caa405c4065e .vertical .axis.always_show .guide.line{opacity:1 !important}#chart-8abdf2d9-be0b-4a3f-97ea-caa405c4065e .axis.y .guides:hover .guide.line,#chart-8abdf2d9-be0b-4a3f-97ea-caa405c4065e .axis.y2 .guides:hover .guide.line,#chart-8abdf2d9-be0b-4a3f-97ea-caa405c4065e .axis.x .guides:hover .guide.line{opacity:1}#chart-8abdf2d9-be0b-4a3f-97ea-caa405c4065e .axis .guides:hover text{opacity:1}#chart-8abdf2d9-be0b-4a3f-97ea-caa405c4065e .nofill{fill:none}#chart-8abdf2d9-be0b-4a3f-97ea-caa405c4065e .subtle-fill{fill-opacity:.2}#chart-8abdf2d9-be0b-4a3f-97ea-caa405c4065e .dot{stroke-width:1px;fill-opacity:1;stroke-opacity:1}#chart-8abdf2d9-be0b-4a3f-97ea-caa405c4065e .dot.active{stroke-width:5px}#chart-8abdf2d9-be0b-4a3f-97ea-caa405c4065e .dot.negative{fill:transparent}#chart-8abdf2d9-be0b-4a3f-97ea-caa405c4065e text,#chart-8abdf2d9-be0b-4a3f-97ea-caa405c4065e tspan{stroke:none !important}#chart-8abdf2d9-be0b-4a3f-97ea-caa405c4065e .series text.active{opacity:1}#chart-8abdf2d9-be0b-4a3f-97ea-caa405c4065e .tooltip rect{fill-opacity:.95;stroke-width:.5}#chart-8abdf2d9-be0b-4a3f-97ea-caa405c4065e .tooltip text{fill-opacity:1}#chart-8abdf2d9-be0b-4a3f-97ea-caa405c4065e .showable{visibility:hidden}#chart-8abdf2d9-be0b-4a3f-97ea-caa405c4065e .showable.shown{visibility:visible}#chart-8abdf2d9-be0b-4a3f-97ea-caa405c4065e .gauge-background{fill:rgba(229,229,229,1);stroke:none}#chart-8abdf2d9-be0b-4a3f-97ea-caa405c4065e .bg-lines{stroke:rgba(249,249,249,1);stroke-width:2px}</style><script type="text/javascript">window.pygal = window.pygal || {};window.pygal.config = window.pygal.config || {};window.pygal.config['8abdf2d9-be0b-4a3f-97ea-caa405c4065e'] = {"allow_interruptions": false, "box_mode": "extremes", "classes": ["pygal-chart"], "css": ["file://style.css", "file://graph.css"], "defs": [], "disable_xml_declaration": false, "dots_size": 2.5, "dynamic_print_values": false, "explicit_size": false, "fill": false, "force_uri_protocol": "https", "formatter": null, "half_pie": false, "height": 600, "include_x_axis": false, "inner_radius": 0, "interpolate": null, "interpolation_parameters": {}, "interpolation_precision": 250, "inverse_y_axis": false, "js": ["//kozea.github.io/pygal.js/2.0.x/pygal-tooltips.min.js"], "legend_at_bottom": false, "legend_at_bottom_columns": null, "legend_box_size": 12, "logarithmic": false, "margin": 20, "margin_bottom": null, "margin_left": null, "margin_right": null, "margin_top": null, "max_scale": 16, "min_scale": 4, "missing_value_fill_truncation": "x", "no_data_text": "No data", "no_prefix": false, "order_min": null, "pretty_print": false, "print_labels": false, "print_values": false, "print_values_position": "center", "print_zeroes": true, "range": null, "rounded_bars": null, "secondary_range": null, "show_dots": false, "show_legend": true, "show_minor_x_labels": true, "show_minor_y_labels": true, "show_only_major_dots": false, "show_x_guides": false, "show_x_labels": true, "show_y_guides": true, "show_y_labels": true, "spacing": 10, "stack_from_top": false, "strict": false, "stroke": true, "stroke_style": null, "style": {"background": "rgba(249, 249, 249, 1)", "ci_colors": [], "colors": ["#F44336", "#3F51B5", "#009688", "#FFC107", "#FF5722", "#9C27B0", "#03A9F4", "#8BC34A", "#FF9800", "#E91E63", "#2196F3", "#4CAF50", "#FFEB3B", "#673AB7", "#00BCD4", "#CDDC39", "#9E9E9E", "#607D8B"], "dot_opacity": "1", "font_family": "Consolas, \"Liberation Mono\", Menlo, Courier, monospace", "foreground": "rgba(0, 0, 0, .87)", "foreground_strong": "rgba(0, 0, 0, 1)", "foreground_subtle": "rgba(0, 0, 0, .54)", "guide_stroke_color": "black", "guide_stroke_dasharray": "4,4", "label_font_family": "Consolas, \"Liberation Mono\", Menlo, Courier, monospace", "label_font_size": 10, "legend_font_family": "Consolas, \"Liberation Mono\", Menlo, Courier, monospace", "legend_font_size": 14, "major_guide_stroke_color": "black", "major_guide_stroke_dasharray": "6,6", "major_label_font_family": "Consolas, \"Liberation Mono\", Menlo, Courier, monospace", "major_label_font_size": 10, "no_data_font_family": "Consolas, \"Liberation Mono\", Menlo, Courier, monospace", "no_data_font_size": 64, "opacity": ".7", "opacity_hover": ".8", "plot_background": "rgba(255, 255, 255, 1)", "stroke_opacity": ".8", "stroke_opacity_hover": ".9", "stroke_width": "1", "stroke_width_hover": "4", "title_font_family": "Consolas, \"Liberation Mono\", Menlo, Courier, monospace", "title_font_size": 16, "tooltip_font_family": "Consolas, \"Liberation Mono\", Menlo, Courier, monospace", "tooltip_font_size": 14, "transition": "150ms", "value_background": "rgba(229, 229, 229, 1)", "value_colors": [], "value_font_family": "Consolas, \"Liberation Mono\", Menlo, Courier, monospace", "value_font_size": 16, "value_label_font_family": "Consolas, \"Liberation Mono\", Menlo, Courier, monospace", "value_label_font_size": 10}, "title": "Temperature change at the midpoint of the Steak", "tooltip_border_radius": 0, "tooltip_fancy_mode": true, "truncate_label": null, "truncate_legend": null, "width": 800, "x_label_rotation": 0, "x_labels": null, "x_labels_major": null, "x_labels_major_count": null, "x_labels_major_every": null, "x_title": null, "xrange": null, "y_label_rotation": 0, "y_labels": null, "y_labels_major": null, "y_labels_major_count": null, "y_labels_major_every": null, "y_title": null, "zero": 0, "legends": ["midpoint"]}</script><script type="text/javascript" xlink:href="https://kozea.github.io/pygal.js/2.0.x/pygal-tooltips.min.js" /></defs><title>Temperature change at the midpoint of the Steak</title><g class="graph xy-graph vertical"><rect x="0" y="0" width="800" height="600" class="background" /><g transform="translate(137, 46)" class="plot"><rect x="0" y="0" width="642.8" height="514" class="background" /><g class="axis y always_show"><path d="M0.000000 514.000000 h642.800000" class="line" /><g class="guides"><path d="M0.000000 488.943610 h642.800000" class="major guide line" /><text x="-5" y="492.4436098870093" class="major">300</text><title>300</title></g><g class="guides"><path d="M0.000000 406.934017 h642.800000" class="guide line" /><text x="-5" y="410.43401676065787" class="">310</text><title>310</title></g><g class="guides"><path d="M0.000000 324.924424 h642.800000" class="guide line" /><text x="-5" y="328.4244236343065" class="">320</text><title>320</title></g><g class="guides"><path d="M0.000000 242.914831 h642.800000" class="guide line" /><text x="-5" y="246.41483050795512" class="">330</text><title>330</title></g><g class="guides"><path d="M0.000000 160.905237 h642.800000" class="guide line" /><text x="-5" y="164.40523738160374" class="">340</text><title>340</title></g><g class="guides"><path d="M0.000000 78.895644 h642.800000" class="major guide line" /><text x="-5" y="82.39564425525236" class="major">350</text><title>350</title></g></g><g class="axis x"><g class="guides"><path d="M12.361538 0.000000 v514.000000" class="axis line" /><text x="12.361538461538462" y="529.0" class="">0</text><title>0</title></g><g class="guides"><path d="M106.009557 0.000000 v514.000000" class="guide line" /><text x="106.00955710955708" y="529.0" class="">100</text><title>100</title></g><g class="guides"><path d="M199.657576 0.000000 v514.000000" class="guide line" /><text x="199.65757575757573" y="529.0" class="">200</text><title>200</title></g><g class="guides"><path d="M293.305594 0.000000 v514.000000" class="guide line" /><text x="293.3055944055944" y="529.0" class="">300</text><title>300</title></g><g class="guides"><path d="M386.953613 0.000000 v514.000000" class="guide line" /><text x="386.95361305361297" y="529.0" class="">400</text><title>400</title></g><g class="guides"><path d="M480.601632 0.000000 v514.000000" class="guide line" /><text x="480.6016317016317" y="529.0" class="">500</text><title>500</title></g><g class="guides"><path d="M574.249650 0.000000 v514.000000" class="guide line" /><text x="574.2496503496503" y="529.0" class="">600</text><title>600</title></g></g><g class="series serie-0 color-0"><path d="M12.361538 504.115385 L13.298019 504.115385 14.234499 504.115385 15.170979 504.115385 16.107459 504.115384 17.043939 504.115384 17.980420 504.115383 18.916900 504.115381 19.853380 504.115377 20.789860 504.115368 21.726340 504.115351 22.662821 504.115322 23.599301 504.115274 24.535781 504.115198 25.472261 504.115081 26.408741 504.114909 27.345221 504.114662 28.281702 504.114318 29.218182 504.113848 30.154662 504.113219 31.091142 504.112395 32.027622 504.111334 32.964103 504.109987 33.900583 504.108302 34.837063 504.106221 35.773543 504.103683 36.710023 504.100620 37.646503 504.096961 38.582984 504.092630 39.519464 504.087547 40.455944 504.081631 41.392424 504.074794 42.328904 504.066946 43.265385 504.057997 44.201865 504.047850 45.138345 504.036409 46.074825 504.023574 47.011305 504.009244 47.947786 503.993313 48.884266 503.975675 49.820746 503.956224 50.757226 503.934850 51.693706 503.911439 52.630186 503.885881 53.566667 503.858060 54.503147 503.827860 55.439627 503.795165 56.376107 503.759858 57.312587 503.721819 58.249068 503.680931 59.185548 503.637073 60.122028 503.590128 61.058508 503.539976 61.994988 503.486500 62.931469 503.429581 63.867949 503.369103 64.804429 503.304951 65.740909 503.237010 66.677389 503.165168 67.613869 503.089315 68.550350 503.009342 69.486830 502.925142 70.423310 502.836611 71.359790 502.743647 72.296270 502.646151 73.232751 502.544026 74.169231 502.437180 75.105711 502.325520 76.042191 502.208959 76.978671 502.087413 77.915152 501.960799 78.851632 501.829039 79.788112 501.692059 80.724592 501.549785 81.661072 501.402149 82.597552 501.249085 83.534033 501.090531 84.470513 500.926428 85.406993 500.756719 86.343473 500.581353 87.279953 500.400278 88.216434 500.213449 89.152914 500.020822 90.089394 499.822357 91.025874 499.618016 91.962354 499.407764 92.898834 499.191571 93.835315 498.969406 94.771795 498.741245 95.708275 498.507063 96.644755 498.266840 97.581235 498.020558 98.517716 497.768201 99.454196 497.509755 100.390676 497.245210 101.327156 496.974557 102.263636 496.697790 103.200117 496.414904 104.136597 496.125897 105.073077 495.830770 106.009557 495.529524 106.946037 495.222163 107.882517 494.908692 108.818998 494.589119 109.755478 494.263453 110.691958 493.931704 111.628438 493.593886 112.564918 493.250010 113.501399 492.900094 114.437879 492.544153 115.374359 492.182206 116.310839 491.814272 117.247319 491.440371 118.183800 491.060525 119.120280 490.674757 120.056760 490.283091 120.993240 489.885552 121.929720 489.482165 122.866200 489.072958 123.802681 488.657958 124.739161 488.237195 125.675641 487.810697 126.612121 487.378494 127.548601 486.940618 128.485082 486.497100 129.421562 486.047973 130.358042 485.593268 131.294522 485.133020 132.231002 484.667263 133.167483 484.196031 134.103963 483.719359 135.040443 483.237283 135.976923 482.749838 136.913403 482.257060 137.849883 481.758986 138.786364 481.255654 139.722844 480.747099 140.659324 480.233360 141.595804 479.714475 142.532284 479.190481 143.468765 478.661416 144.405245 478.127319 145.341725 477.588229 146.278205 477.044184 147.214685 476.495223 148.151166 475.941385 149.087646 475.382708 150.024126 474.819233 150.960606 474.250998 151.897086 473.678043 152.833566 473.100406 153.770047 472.518128 154.706527 471.931246 155.643007 471.339801 156.579487 470.743832 157.515967 470.143378 158.452448 469.538477 159.388928 468.929170 160.325408 468.315495 161.261888 467.697492 162.198368 467.075198 163.134848 466.448653 164.071329 465.817895 165.007809 465.182963 165.944289 464.543896 166.880769 463.900731 167.817249 463.253506 168.753730 462.602261 169.690210 461.947032 170.626690 461.287857 171.563170 460.624774 172.499650 459.957820 173.436131 459.287033 174.372611 458.612448 175.309091 457.934104 176.245571 457.252037 177.182051 456.566282 178.118531 455.876877 179.055012 455.183857 179.991492 454.487258 180.927972 453.787117 181.864452 453.083467 182.800932 452.376345 183.737413 451.665785 184.673893 450.951822 185.610373 450.234491 186.546853 449.513826 187.483333 448.789861 188.419814 448.062630 189.356294 447.332167 190.292774 446.598504 191.229254 445.861676 192.165734 445.121714 193.102214 444.378653 194.038695 443.632523 194.975175 442.883358 195.911655 442.131190 196.848135 441.376049 197.784615 440.617969 198.721096 439.856979 199.657576 439.093112 200.594056 438.326397 201.530536 437.556866 202.467016 436.784549 203.403497 436.009475 204.339977 435.231675 205.276457 434.451179 206.212937 433.668015 207.149417 432.882213 208.085897 432.093802 209.022378 431.302811 209.958858 430.509267 210.895338 429.713199 211.831818 428.914636 212.768298 428.113604 213.704779 427.310131 214.641259 426.504245 215.577739 425.695973 216.514219 424.885341 217.450699 424.072375 218.387179 423.257104 219.323660 422.439551 220.260140 421.619744 221.196620 420.797708 222.133100 419.973468 223.069580 419.147050 224.006061 418.318478 224.942541 417.487778 225.879021 416.654974 226.815501 415.820090 227.751981 414.983150 228.688462 414.144179 229.624942 413.303200 230.561422 412.460236 231.497902 411.615311 232.434382 410.768448 233.370862 409.919669 234.307343 409.068998 235.243823 408.216456 236.180303 407.362066 237.116783 406.505850 238.053263 405.647830 238.989744 404.788027 239.926224 403.926463 240.862704 403.063158 241.799184 402.198135 242.735664 401.331414 243.672145 400.463015 244.608625 399.592958 245.545105 398.721265 246.481585 397.847955 247.418065 396.973048 248.354545 396.096564 249.291026 395.218522 250.227506 394.338941 251.163986 393.457841 252.100466 392.575240 253.036946 391.691158 253.973427 390.805613 254.909907 389.918622 255.846387 389.030206 256.782867 388.140381 257.719347 387.249165 258.655828 386.356577 259.592308 385.462633 260.528788 384.567351 261.465268 383.670749 262.401748 382.772843 263.338228 381.873650 264.274709 380.973187 265.211189 380.071470 266.147669 379.168516 267.084149 378.264342 268.020629 377.358962 268.957110 376.452394 269.893590 375.544652 270.830070 374.635753 271.766550 373.725712 272.703030 372.814543 273.639510 371.902264 274.575991 370.988887 275.512471 370.074429 276.448951 369.158904 277.385431 368.242326 278.321911 367.324710 279.258392 366.406071 280.194872 365.486422 281.131352 364.565777 282.067832 363.644150 283.004312 362.721556 283.940793 361.798007 284.877273 360.873517 285.813753 359.948099 286.750233 359.021767 287.686713 358.094534 288.623193 357.166412 289.559674 356.237414 290.496154 355.307554 291.432634 354.376843 292.369114 353.445294 293.305594 352.512920 294.242075 351.579732 295.178555 350.645743 296.115035 349.710964 297.051515 348.775408 297.987995 347.839086 298.924476 346.902009 299.860956 345.964190 300.797436 345.025639 301.733916 344.086368 302.670396 343.146388 303.606876 342.205709 304.543357 341.264344 305.479837 340.322302 306.416317 339.379594 307.352797 338.436232 308.289277 337.492224 309.225758 336.547583 310.162238 335.602317 311.098718 334.656438 312.035198 333.709955 312.971678 332.762878 313.908159 331.815217 314.844639 330.866982 315.781119 329.918183 316.717599 328.968829 317.654079 328.018929 318.590559 327.068493 319.527040 326.117530 320.463520 325.166050 321.400000 324.214061 322.336480 323.261573 323.272960 322.308594 324.209441 321.355134 325.145921 320.401200 326.082401 319.446802 327.018881 318.491948 327.955361 317.536646 328.891841 316.580906 329.828322 315.624735 330.764802 314.668141 331.701282 313.711133 332.637762 312.753718 333.574242 311.795906 334.510723 310.837702 335.447203 309.879116 336.383683 308.920155 337.320163 307.960827 338.256643 307.001139 339.193124 306.041099 340.129604 305.080713 341.066084 304.119990 342.002564 303.158937 342.939044 302.197561 343.875524 301.235869 344.812005 300.273868 345.748485 299.311564 346.684965 298.348966 347.621445 297.386080 348.557925 296.422911 349.494406 295.459468 350.430886 294.495757 351.367366 293.531784 352.303846 292.567556 353.240326 291.603079 354.176807 290.638360 355.113287 289.673404 356.049767 288.708219 356.986247 287.742809 357.922727 286.777182 358.859207 285.811343 359.795688 284.845299 360.732168 283.879054 361.668648 282.912616 362.605128 281.945989 363.541608 280.979180 364.478089 280.012194 365.414569 279.045036 366.351049 278.077713 367.287529 277.110230 368.224009 276.142592 369.160490 275.174804 370.096970 274.206872 371.033450 273.238802 371.969930 272.270598 372.906410 271.302265 373.842890 270.333808 374.779371 269.365234 375.715851 268.396546 376.652331 267.427749 377.588811 266.458849 378.525291 265.489850 379.461772 264.520757 380.398252 263.551575 381.334732 262.582309 382.271212 261.612962 383.207692 260.643540 384.144172 259.674048 385.080653 258.704489 386.017133 257.734868 386.953613 256.765189 387.890093 255.795458 388.826573 254.825677 389.763054 253.855852 390.699534 252.885987 391.636014 251.916086 392.572494 250.946152 393.508974 249.976190 394.445455 249.006205 395.381935 248.036199 396.318415 247.066178 397.254895 246.096144 398.191375 245.126102 399.127855 244.156056 400.064336 243.186009 401.000816 242.215965 401.937296 241.245927 402.873776 240.275901 403.810256 239.305888 404.746737 238.335893 405.683217 237.365919 406.619697 236.395970 407.556177 235.426050 408.492657 234.456161 409.429138 233.486306 410.365618 232.516491 411.302098 231.546717 412.238578 230.576988 413.175058 229.607307 414.111538 228.637678 415.048019 227.668103 415.984499 226.698586 416.920979 225.729130 417.857459 224.759738 418.793939 223.790413 419.730420 222.821159 420.666900 221.851977 421.603380 220.882871 422.539860 219.913844 423.476340 218.944899 424.412821 217.976039 425.349301 217.007266 426.285781 216.038583 427.222261 215.069993 428.158741 214.101499 429.095221 213.133104 430.031702 212.164809 430.968182 211.196619 431.904662 210.228535 432.841142 209.260559 433.777622 208.292696 434.714103 207.324946 435.650583 206.357313 436.587063 205.389799 437.523543 204.422406 438.460023 203.455137 439.396503 202.487994 440.332984 201.520980 441.269464 200.554097 442.205944 199.587348 443.142424 198.620734 444.078904 197.654257 445.015385 196.687921 445.951865 195.721727 446.888345 194.755677 447.824825 193.789774 448.761305 192.824020 449.697786 191.858417 450.634266 190.892966 451.570746 189.927671 452.507226 188.962533 453.443706 187.997553 454.380186 187.032735 455.316667 186.068080 456.253147 185.103590 457.189627 184.139266 458.126107 183.175112 459.062587 182.211128 459.999068 181.247317 460.935548 180.283680 461.872028 179.320219 462.808508 178.356937 463.744988 177.393834 464.681469 176.430913 465.617949 175.468175 466.554429 174.505622 467.490909 173.543256 468.427389 172.581079 469.363869 171.619091 470.300350 170.657295 471.236830 169.695692 472.173310 168.734285 473.109790 167.773074 474.046270 166.812060 474.982751 165.851247 475.919231 164.890635 476.855711 163.930225 477.792191 162.970020 478.728671 162.010020 479.665152 161.050227 480.601632 160.090643 481.538112 159.131268 482.474592 158.172105 483.411072 157.213155 484.347552 156.254419 485.284033 155.295898 486.220513 154.337595 487.156993 153.379509 488.093473 152.421643 489.029953 151.463997 489.966434 150.506574 490.902914 149.549374 491.839394 148.592398 492.775874 147.635649 493.712354 146.679126 494.648834 145.722831 495.585315 144.766766 496.521795 143.810931 497.458275 142.855328 498.394755 141.899958 499.331235 140.944822 500.267716 139.989921 501.204196 139.035256 502.140676 138.080829 503.077156 137.126640 504.013636 136.172690 504.950117 135.218981 505.886597 134.265513 506.823077 133.312288 507.759557 132.359306 508.696037 131.406569 509.632517 130.454078 510.568998 129.501833 511.505478 128.549835 512.441958 127.598086 513.378438 126.646587 514.314918 125.695337 515.251399 124.744339 516.187879 123.793593 517.124359 122.843100 518.060839 121.892860 518.997319 120.942876 519.933800 119.993147 520.870280 119.043674 521.806760 118.094459 522.743240 117.145502 523.679720 116.196804 524.616200 115.248365 525.552681 114.300187 526.489161 113.352270 527.425641 112.404616 528.362121 111.457224 529.298601 110.510095 530.235082 109.563231 531.171562 108.616632 532.108042 107.670299 533.044522 106.724232 533.981002 105.778432 534.917483 104.832901 535.853963 103.887637 536.790443 102.942643 537.726923 101.997919 538.663403 101.053465 539.599883 100.109283 540.536364 99.165372 541.472844 98.221733 542.409324 97.278368 543.345804 96.335276 544.282284 95.392459 545.218765 94.449917 546.155245 93.507649 547.091725 92.565658 548.028205 91.623944 548.964685 90.682507 549.901166 89.741347 550.837646 88.800465 551.774126 87.859863 552.710606 86.919539 553.647086 85.979496 554.583566 85.039733 555.520047 84.100250 556.456527 83.161049 557.393007 82.222130 558.329487 81.283493 559.265967 80.345139 560.202448 79.407068 561.138928 78.469281 562.075408 77.531778 563.011888 76.594560 563.948368 75.657627 564.884848 74.720979 565.821329 73.784617 566.757809 72.848542 567.694289 71.912753 568.630769 70.977251 569.567249 70.042037 570.503730 69.107111 571.440210 68.172473 572.376690 67.238125 573.313170 66.304065 574.249650 65.370294 575.186131 64.436814 576.122611 63.503623 577.059091 62.570724 577.995571 61.638115 578.932051 60.705797 579.868531 59.773771 580.805012 58.842037 581.741492 57.910595 582.677972 56.979446 583.614452 56.048589 584.550932 55.118026 585.487413 54.187756 586.423893 53.257780 587.360373 52.328097 588.296853 51.398710 589.233333 50.469617 590.169814 49.540818 591.106294 48.612315 592.042774 47.684108 592.979254 46.756196 593.915734 45.828580 594.852214 44.901260 595.788695 43.974236 596.725175 43.047510 597.661655 42.121080 598.598135 41.194947 599.534615 40.269112 600.471096 39.343574 601.407576 38.418334 602.344056 37.493393 603.280536 36.568749 604.217016 35.644404 605.153497 34.720357 606.089977 33.796610 607.026457 32.873161 607.962937 31.950012 608.899417 31.027162 609.835897 30.104612 610.772378 29.182361 611.708858 28.260410 612.645338 27.338760 613.581818 26.417409 614.518298 25.496360 615.454779 24.575610 616.391259 23.655162 617.327739 22.735014 618.264219 21.815168 619.200699 20.895622 620.137179 19.976378 621.073660 19.057435 622.010140 18.138794 622.946620 17.220455 623.883100 16.302417 624.819580 15.384682 625.756061 14.467248 626.692541 13.550117 627.629021 12.633288 628.565501 11.716761 629.501981 10.800537 630.438462 9.884615" class="line reactive nofill" /></g></g><g class="titles"><text x="400.0" y="26" class="title plot_title">Temperature change at the midpoint of the Steak</text></g><g transform="translate(137, 46)" class="plot overlay"><g class="series serie-0 color-0" /></g><g transform="translate(137, 46)" class="plot text-overlay"><g class="series serie-0 color-0" /></g><g transform="translate(137, 46)" class="plot tooltip-overlay"><g transform="translate(0 0)" style="opacity: 0" class="tooltip"><rect rx="0" ry="0" width="0" height="0" class="tooltip-box" /><g class="text" /></g></g><g transform="translate(10, 56)" class="legends"><g id="activate-serie-0" class="legend reactive activate-serie"><rect x="0.0" y="1.0" width="12" height="12" class="color-0 reactive" /><text x="17.0" y="11.2">midpoint</text></g></g><g transform="translate(790, 56)" class="legends" /></g></svg>