<?xml version='1.0' encoding='utf-8'?>
<svg xmlns:xlink="http://www.w3.org/1999/xlink" xmlns="http://www.w3.org/2000/svg" id="chart-6bc604c0-a603-4b35-8972-7595381753a9" class="pygal-chart" viewBox="0 0 800 600"><!--Generated with pygal 3.0.0 (etree) ©Kozea 2012-2016 on 2022-03-31--><!--http://pygal.org--><!--http://github.com/Kozea/pygal--><defs><style type="text/css">#chart-6bc604c0-a603-4b35-8972-7595381753a9{-webkit-user-select:none;-webkit-font-smoothing:antialiased;font-family:Consolas,"Liberation Mono",Menlo,Courier,monospace}#chart-6bc604c0-a603-4b35-8972-7595381753a9 .title{font-family:Consolas,"Liberation Mono",Menlo,Courier,monospace;font-size:16px}#chart-6bc604c0-a603-4b35-8972-7595381753a9 .legends .legend text{font-family:Consolas,"Liberation Mono",Menlo,Courier,monospace;font-size:14px}#chart-6bc604c0-a603-4b35-8972-7595381753a9 .axis text{font-family:Consolas,"Liberation Mono",Menlo,Courier,monospace;font-size:10px}#chart-6bc604c0-a603-4b35-8972-7595381753a9 .axis text.major{font-family:Consolas,"Liberation Mono",Menlo,Courier,monospace;font-size:10px}#chart-6bc604c0-a603-4b35-8972-7595381753a9 .text-overlay text.value{font-family:Consolas,"Liberation Mono",Menlo,Courier,monospace;font-size:16px}#chart-6bc604c0-a603-4b35-8972-7595381753a9 .text-overlay text.label{font-family:Consolas,"Liberation Mono",Menlo,Courier,monospace;font-size:10px}#chart-6bc604c0-a603-4b35-8972-7595381753a9 .tooltip{font-family:Consolas,"Liberation Mono",Menlo,Courier,monospace;font-size:14px}#chart-6bc604c0-a603-4b35-8972-7595381753a9 text.no_data{font-family:Consolas,"Liberation Mono",Menlo,Courier,monospace;font-size:64px}
#chart-6bc604c0-a603-4b35-8972-7595381753a9{background-color:rgba(249,249,249,1)}#chart-6bc604c0-a603-4b35-8972-7595381753a9 path,#chart-6bc604c0-a603-4b35-8972-7595381753a9 line,#chart-6bc604c0-a603-4b35-8972-7595381753a9 rect,#chart-6bc604c0-a603-4b35-8972-7595381753a9 circle{-webkit-transition:150ms;-moz-transition:150ms;transition:150ms}#chart-6bc604c0-a603-4b35-8972-7595381753a9 .graph &gt; .background{fill:rgba(249,249,249,1)}#chart-6bc604c0-a603-4b35-8972-7595381753a9 .plot &gt; .background{fill:rgba(255,255,255,1)}#chart-6bc604c0-a603-4b35-8972-7595381753a9 .graph{fill:rgba(0,0,0,.87)}#chart-6bc604c0-a603-4b35-8972-7595381753a9 text.no_data{fill:rgba(0,0,0,1)}#chart-6bc604c0-a603-4b35-8972-7595381753a9 .title{fill:rgba(0,0,0,1)}#chart-6bc604c0-a603-4b35-8972-7595381753a9 .legends .legend text{fill:rgba(0,0,0,.87)}#chart-6bc604c0-a603-4b35-8972-7595381753a9 .legends .legend:hover text{fill:rgba(0,0,0,1)}#chart-6bc604c0-a603-4b35-8972-7595381753a9 .axis .line{stroke:rgba(0,0,0,1)}#chart-6bc604c0-a603-4b35-8972-7595381753a9 .axis .guide.line{stroke:rgba(0,0,0,.54)}#chart-6bc604c0-a603-4b35-8972-7595381753a9 .axis .major.line{stroke:rgba(0,0,0,.87)}#chart-6bc604c0-a603-4b35-8972-7595381753a9 .axis text.major{fill:rgba(0,0,0,1)}#chart-6bc604c0-a603-4b35-8972-7595381753a9 .axis.y .guides:hover .guide.line,#chart-6bc604c0-a603-4b35-8972-7595381753a9 .line-graph .axis.x .guides:hover .guide.line,#chart-6bc604c0-a603-4b35-8972-7595381753a9 .stackedline-graph .axis.x .guides:hover .guide.line,#chart-6bc604c0-a603-4b35-8972-7595381753a9 .xy-graph .axis.x .guides:hover .guide.line{stroke:rgba(0,0,0,1)}#chart-6bc604c0-a603-4b35-8972-7595381753a9 .axis .guides:hover text{fill:rgba(0,0,0,1)}#chart-6bc604c0-a603-4b35-8972-7595381753a9 .reactive{fill-opacity:.7;stroke-opacity:.8;stroke-width:1}#chart-6bc604c0-a603-4b35-8972-7595381753a9 .ci{stroke:rgba(0,0,0,.87)}#chart-6bc604c0-a603-4b35-8972-7595381753a9 .reactive.active,#chart-6bc604c0-a603-4b35-8972-7595381753a9 .active .reactive{fill-opacity:.8;stroke-opacity:.9;stroke-width:4}#chart-6bc604c0-a603-4b35-8972-7595381753a9 .ci .reactive.active{stroke-width:1.5}#chart-6bc604c0-a603-4b35-8972-7595381753a9 .series text{fill:rgba(0,0,0,1)}#chart-6bc604c0-a603-4b35-8972-7595381753a9 .tooltip rect{fill:rgba(255,255,255,1);stroke:rgba(0,0,0,1);-webkit-transition:opacity 150ms;-moz-transition:opacity 150ms;transition:opacity 150ms}#chart-6bc604c0-a603-4b35-8972-7595381753a9 .tooltip .label{fill:rgba(0,0,0,.87)}#chart-6bc604c0-a603-4b35-8972-7595381753a9 .tooltip .label{fill:rgba(0,0,0,.87)}#chart-6bc604c0-a603-4b35-8972-7595381753a9 .tooltip .legend{font-size:.8em;fill:rgba(0,0,0,.54)}#chart-6bc604c0-a603-4b35-8972-7595381753a9 .tooltip .x_label{font-size:.6em;fill:rgba(0,0,0,1)}#chart-6bc604c0-a603-4b35-8972-7595381753a9 .tooltip .xlink{font-size:.5em;text-decoration:underline}#chart-6bc604c0-a603-4b35-8972-7595381753a9 .tooltip .value{font-size:1.5em}#chart-6bc604c0-a603-4b35-8972-7595381753a9 .bound{font-size:.5em}#chart-6bc604c0-a603-4b35-8972-7595381753a9 .max-value{font-size:.75em;fill:rgba(0,0,0,.54)}#chart-6bc604c0-a603-4b35-8972-7595381753a9 .map-element{fill:rgba(255,255,255,1);stroke:rgba(0,0,0,.54) !important}#chart-6bc604c0-a603-4b35-8972-7595381753a9 .map-element .reactive{fill-opacity:inherit;stroke-opacity:inherit}#chart-6bc604c0-a603-4b35-8972-7595381753a9 .color-0,#chart-6bc604c0-a603-4b35-8972-7595381753a9 .color-0 a:visited{stroke:#F44336;fill:#F44336}#chart-6bc604c0-a603-4b35-8972-7595381753a9 .text-overlay .color-0 text{fill:black}
#chart-6bc604c0-a603-4b35-8972-7595381753a9 text.no_data{text-anchor:middle}#chart-6bc604c0-a603-4b35-8972-7595381753a9 .guide.line{fill:none}#chart-6bc604c0-a603-4b35-8972-7595381753a9 .centered{text-anchor:middle}#chart-6bc604c0-a603-4b35-8972-7595381753a9 .title{text-anchor:middle}#chart-6bc604c0-a603-4b35-8972-7595381753a9 .legends .legend text{fill-opacity:1}#chart-6bc604c0-a603-4b35-8972-7595381753a9 .axis.x text{text-anchor:middle}#chart-6bc604c0-a603-4b35-8972-7595381753a9 .axis.x:not(.web) text[transform]{text-anchor:start}#chart-6bc604c0-a603-4b35-8972-7595381753a9 .axis.x:not(.web) text[transform].backwards{text-anchor:end}#chart-6bc604c0-a603-4b35-8972-7595381753a9 .axis.y text{text-anchor:end}#chart-6bc604c0-a603-4b35-8972-7595381753a9 .axis.y text[transform].backwards{text-anchor:start}#chart-6bc604c0-a603-4b35-8972-7595381753a9 .axis.y2 text{text-anchor:start}#chart-6bc604c0-a603-4b35-8972-7595381753a9 .axis.y2 text[transform].backwards{text-anchor:end}#chart-6bc604c0-a603-4b35-8972-7595381753a9 .axis .guide.line{stroke-dasharray:4,4;stroke:black}#chart-6bc604c0-a603-4b35-8972-7595381753a9 .axis .major.guide.line{stroke-dasharray:6,6;stroke:black}#chart-6bc604c0-a603-4b35-8972-7595381753a9 .horizontal .axis.y .guide.line,#chart-6bc604c0-a603-4b35-8972-7595381753a9 .horizontal .axis.y2 .guide.line,#chart-6bc604c0-a603-4b35-8972-7595381753a9 .vertical .axis.x .guide.line{opacity:0}#chart-6bc604c0-a603-4b35-8972-7595381753a9 .horizontal .axis.always_show .guide.line,#chart-6bc604c0-a603-4b35-8972-7595381753a9 .vertical .axis.always_show .guide.line{opacity:1 !important}#chart-6bc604c0-a603-4b35-8972-7595381753a9 .axis.y .guides:hover .guide.line,#chart-6bc604c0-a603-4b35-8972-7595381753a9 .axis.y2 .guides:hover .guide.line,#chart-6bc604c0-a603-4b35-8972-7595381753a9 .axis.x .guides:hover .guide.line{opacity:1}#chart-6bc604c0-a603-4b35-8972-7595381753a9 .axis .guides:hover text{opacity:1}#chart-6bc604c0-a603-4b35-8972-7595381753a9 .nofill{fill:none}#chart-6bc604c0-a603-4b35-8972-7595381753a9 .subtle-fill{fill-opacity:.2}#chart-6bc604c0-a603-4b35-8972-7595381753a9 .dot{stroke-width:1px;fill-opacity:1;stroke-opacity:1}#chart-6bc604c0-a603-4b35-8972-7595381753a9 .dot.active{stroke-width:5px}#chart-6bc604c0-a603-4b35-8972-7595381753a9 .dot.negative{fill:transparent}#chart-6bc604c0-a603-4b35-8972-7595381753a9 text,#chart-6bc604c0-a603-4b35-8972-7595381753a9 tspan{stroke:none !important}#chart-6bc604c0-a603-4b35-8972-7595381753a9 .series text.active{opacity:1}#chart-6bc604c0-a603-4b35-8972-7595381753a9 .tooltip rect{fill-opacity:.95;stroke-width:.5}#chart-6bc604c0-a603-4b35-8972-7595381753a9 .tooltip text{fill-opacity:1}#chart-6bc604c0-a603-4b35-8972-7595381753a9 .showable{visibility:hidden}#chart-6bc604c0-a603-4b35-8972-7595381753a9 .showable.shown{visibility:visible}#chart-6bc604c0-a603-4b35-8972-7595381753a9 .gauge-background{fill:rgba(229,229,229,1);stroke:none}#chart-6bc604c0-a603-4b35-8972-7595381753a9 .bg-lines{stroke:rgba(249,249,249,1);stroke-width:2px}</style><script type="text/javascript">window.pygal = window.pygal || {};window.pygal.config = window.pygal.config || {};window.pygal.config['6bc604c0-a603-4b35-8972-7595381753a9'] = {"allow_interruptions": false, "box_mode": "extremes", "classes": ["pygal-chart"], "css": ["file://style.css", "file://graph.css"], "defs": [], "disable_xml_declaration": false, "dots_size": 2.5, "dynamic_print_values": false, "explicit_size": false, "fill": false, "force_uri_protocol": "https", "formatter": null, "half_pie": false, "height": 600, "include_x_axis": false, "inner_radius": 0, "interpolate": null, "interpolation_parameters": {}, "interpolation_precision": 250, "inverse_y_axis": false, "js": ["//kozea.github.io/pygal.js/2.0.x/pygal-tooltips.min.js"], "legend_at_bottom": false, "legend_at_bottom_columns": null, "legend_box_size": 12, "logarithmic": false, "margin": 20, "margin_bottom": null, "margin_left": null, "margin_right": null, "margin_top": null, "max_scale": 16, "min_scale": 4, "missing_value_fill_truncation": "x", "no_data_text": "No data", "no_prefix": false, "order_min": null, "pretty_print": false, "print_labels": false, "print_values": false, "print_values_position": "center", "print_zeroes": true, "range": null, "rounded_bars": null, "secondary_range": null, "show_dots": false, "show_legend": true, "show_minor_x_labels": true, "show_minor_y_labels": true, "show_only_major_dots": false, "show_x_guides": false, "show_x_labels": true, "show_y_guides": true, "show_y_labels": true, "spacing": 10, "stack_from_top": false, "strict": false, "stroke": true, "stroke_style": null, "style": {"background": "rgba(249, 249, 249, 1)", "ci_colors": [], "colors": ["#F44336", "#3F51B5", "#009688", "#FFC107", "#FF5722", "#9C27B0", "#03A9F4", "#8BC34A", "#FF9800", "#E91E63", "#2196F3", "#4CAF50", "#FFEB3B", "#673AB7", "#00BCD4", "#CDDC39", "#9E9E9E", "#607D8B"], "dot_opacity": "1", "font_family": "Consolas, \"Liberation Mono\", Menlo, Courier, monospace", "foreground": "rgba(0, 0, 0, .87)", "foreground_strong": "rgba(0, 0, 0, 1)", "foreground_subtle": "rgba(0, 0, 0, .54)", "guide_stroke_color": "black", "guide_stroke_dasharray": "4,4", "label_font_family": "Consolas, \"Liberation Mono\", Menlo, Courier, monospace", "label_font_size": 10, "legend_font_family": "Consolas, \"Liberation Mono\", Menlo, Courier, monospace", "legend_font_size": 14, "major_guide_stroke_color": "black", "major_guide_stroke_dasharray": "6,6", "major_label_font_family": "Consolas, \"Liberation Mono\", Menlo, Courier, monospace", "major_label_font_size": 10, "no_data_font_family": "Consolas, \"Liberation Mono\", Menlo, Courier, monospace", "no_data_font_size": 64, "opacity": ".7", "opacity_hover": ".8", "plot_background": "rgba(255, 255, 255, 1)", "stroke_opacity": ".8", "stroke_opacity_hover": ".9", "stroke_width": "1", "stroke_width_hover": "4", "title_font_family": "Consolas, \"Liberation Mono\", Menlo, Courier, monospace", "title_font_size": 16, "tooltip_font_family": "Consolas, \"Liberation Mono\", Menlo, Courier, monospace", "tooltip_font_size": 14, "transition": "150ms", "value_background": "rgba(229, 229, 229, 1)", "value_colors": [], "value_font_family": "Consolas, \"Liberation Mono\", Menlo, Courier, monospace", "value_font_size": 16, "value_label_font_family": "Consolas, \"Liberation Mono\", Menlo, Courier, monospace", "value_label_font_size": 10}, "title": "Temperature change at the midpoint of the Steak", "tooltip_border_radius": 0, "tooltip_fancy_mode": true, "truncate_label": null, "truncate_legend": null, "width": 800, "x_label_rotation": 0, "x_labels": null, "x_labels_major": null, "x_labels_major_count": null, "x_labels_major_every": null, "x_title": null, "xrange": null, "y_label_rotation": 0, "y_labels": null, "y_labels_major": null, "y_labels_major_count": null, "y_labels_major_every": null, "y_title": null, "zero": 0, "legends": ["midpoint"]}</script><script type="text/javascript" xlink:href="https://kozea.github.io/pygal.js/2.0.x/pygal-tooltips.min.js" /></defs><title>Temperature change at the midpoint of the Steak</title><g class="graph xy-graph vertical"><rect x="0" y="0" width="800" height="600" class="background" /><g transform="translate(131, 46)" class="plot"><rect x="0" y="0" width="648.8" height="514" class="background" /><g class="axis y always_show"><path d="M0.000000 514.000000 h648.800000" class="line" /><g class="guides"><path d="M0.000000 463.110588 h648.800000" class="guide line" /><text x="-5" y="466.6105880522089" class="">30</text><title>30</title></g><g class="guides"><path d="M0.000000 381.100995 h648.800000" class="guide line" /><text x="-5" y="384.6009949258575" class="">40</text><title>40</title></g><g class="guides"><path d="M0.000000 299.091402 h648.800000" class="major guide line" /><text x="-5" y="302.59140179950606" class="major">50</text><title>50</title></g><g class="guides"><path d="M0.000000 217.081809 h648.800000" class="guide line" /><text x="-5" y="220.58180867315457" class="">60</text><title>60</title></g><g class="guides"><path d="M0.000000 135.072216 h648.800000" class="guide line" /><text x="-5" y="138.57221554680314" class="">70</text><title>70</title></g><g class="guides"><path d="M0.000000 53.062622 h648.800000" class="guide line" /><text x="-5" y="56.5626224204517" class="">80</text><title>80</title></g></g><g class="axis x"><g class="guides"><path d="M12.476923 0.000000 v514.000000" class="axis line" /><text x="12.476923076923075" y="529.0" class="">0</text><title>0</title></g><g class="guides"><path d="M106.999068 0.000000 v514.000000" class="guide line" /><text x="106.99906759906759" y="529.0" class="">100</text><title>100</title></g><g class="guides"><path d="M201.521212 0.000000 v514.000000" class="guide line" /><text x="201.52121212121205" y="529.0" class="">200</text><title>200</title></g><g class="guides"><path d="M296.043357 0.000000 v514.000000" class="guide line" /><text x="296.04335664335656" y="529.0" class="">300</text><title>300</title></g><g class="guides"><path d="M390.565501 0.000000 v514.000000" class="guide line" /><text x="390.5655011655011" y="529.0" class="">400</text><title>400</title></g><g class="guides"><path d="M485.087646 0.000000 v514.000000" class="guide line" /><text x="485.08764568764565" y="529.0" class="">500</text><title>500</title></g><g class="guides"><path d="M579.609790 0.000000 v514.000000" class="guide line" /><text x="579.60979020979" y="529.0" class="">600</text><title>600</title></g></g><g class="series serie-0 color-0"><path d="M12.476923 504.115385 L13.422145 504.115385 14.367366 504.115385 15.312587 504.115385 16.257809 504.115384 17.203030 504.115384 18.148252 504.115383 19.093473 504.115381 20.038695 504.115377 20.983916 504.115368 21.929138 504.115351 22.874359 504.115322 23.819580 504.115274 24.764802 504.115198 25.710023 504.115081 26.655245 504.114909 27.600466 504.114662 28.545688 504.114318 29.490909 504.113848 30.436131 504.113219 31.381352 504.112395 32.326573 504.111334 33.271795 504.109987 34.217016 504.108302 35.162238 504.106221 36.107459 504.103683 37.052681 504.100620 37.997902 504.096961 38.943124 504.092630 39.888345 504.087547 40.833566 504.081631 41.778788 504.074794 42.724009 504.066946 43.669231 504.057997 44.614452 504.047850 45.559674 504.036409 46.504895 504.023574 47.450117 504.009244 48.395338 503.993313 49.340559 503.975675 50.285781 503.956224 51.231002 503.934850 52.176224 503.911439 53.121445 503.885881 54.066667 503.858060 55.011888 503.827860 55.957110 503.795165 56.902331 503.759858 57.847552 503.721819 58.792774 503.680931 59.737995 503.637073 60.683217 503.590128 61.628438 503.539976 62.573660 503.486500 63.518881 503.429581 64.464103 503.369103 65.409324 503.304951 66.354545 503.237010 67.299767 503.165168 68.244988 503.089315 69.190210 503.009342 70.135431 502.925142 71.080653 502.836611 72.025874 502.743647 72.971096 502.646151 73.916317 502.544026 74.861538 502.437180 75.806760 502.325520 76.751981 502.208959 77.697203 502.087413 78.642424 501.960799 79.587646 501.829039 80.532867 501.692059 81.478089 501.549785 82.423310 501.402149 83.368531 501.249085 84.313753 501.090531 85.258974 500.926428 86.204196 500.756719 87.149417 500.581353 88.094639 500.400278 89.039860 500.213449 89.985082 500.020822 90.930303 499.822357 91.875524 499.618016 92.820746 499.407764 93.765967 499.191571 94.711189 498.969406 95.656410 498.741245 96.601632 498.507063 97.546853 498.266840 98.492075 498.020558 99.437296 497.768201 100.382517 497.509755 101.327739 497.245210 102.272960 496.974557 103.218182 496.697790 104.163403 496.414904 105.108625 496.125897 106.053846 495.830770 106.999068 495.529524 107.944289 495.222163 108.889510 494.908692 109.834732 494.589119 110.779953 494.263453 111.725175 493.931704 112.670396 493.593886 113.615618 493.250010 114.560839 492.900094 115.506061 492.544153 116.451282 492.182206 117.396503 491.814272 118.341725 491.440371 119.286946 491.060525 120.232168 490.674757 121.177389 490.283091 122.122611 489.885552 123.067832 489.482165 124.013054 489.072958 124.958275 488.657958 125.903497 488.237195 126.848718 487.810697 127.793939 487.378494 128.739161 486.940618 129.684382 486.497100 130.629604 486.047973 131.574825 485.593268 132.520047 485.133020 133.465268 484.667263 134.410490 484.196031 135.355711 483.719359 136.300932 483.237283 137.246154 482.749838 138.191375 482.257060 139.136597 481.758986 140.081818 481.255654 141.027040 480.747099 141.972261 480.233360 142.917483 479.714475 143.862704 479.190481 144.807925 478.661416 145.753147 478.127319 146.698368 477.588229 147.643590 477.044184 148.588811 476.495223 149.534033 475.941385 150.479254 475.382708 151.424476 474.819233 152.369697 474.250998 153.314918 473.678043 154.260140 473.100406 155.205361 472.518128 156.150583 471.931246 157.095804 471.339801 158.041026 470.743832 158.986247 470.143378 159.931469 469.538477 160.876690 468.929170 161.821911 468.315495 162.767133 467.697492 163.712354 467.075198 164.657576 466.448653 165.602797 465.817895 166.548019 465.182963 167.493240 464.543896 168.438462 463.900731 169.383683 463.253506 170.328904 462.602261 171.274126 461.947032 172.219347 461.287857 173.164569 460.624774 174.109790 459.957820 175.055012 459.287033 176.000233 458.612448 176.945455 457.934104 177.890676 457.252037 178.835897 456.566282 179.781119 455.876877 180.726340 455.183857 181.671562 454.487258 182.616783 453.787117 183.562005 453.083467 184.507226 452.376345 185.452448 451.665785 186.397669 450.951822 187.342890 450.234491 188.288112 449.513826 189.233333 448.789861 190.178555 448.062630 191.123776 447.332167 192.068998 446.598504 193.014219 445.861676 193.959441 445.121714 194.904662 444.378653 195.849883 443.632523 196.795105 442.883358 197.740326 442.131190 198.685548 441.376049 199.630769 440.617969 200.575991 439.856979 201.521212 439.093112 202.466434 438.326397 203.411655 437.556866 204.356876 436.784549 205.302098 436.009475 206.247319 435.231675 207.192541 434.451179 208.137762 433.668015 209.082984 432.882213 210.028205 432.093802 210.973427 431.302811 211.918648 430.509267 212.863869 429.713199 213.809091 428.914636 214.754312 428.113604 215.699534 427.310131 216.644755 426.504245 217.589977 425.695973 218.535198 424.885341 219.480420 424.072375 220.425641 423.257104 221.370862 422.439551 222.316084 421.619744 223.261305 420.797708 224.206527 419.973468 225.151748 419.147050 226.096970 418.318478 227.042191 417.487778 227.987413 416.654974 228.932634 415.820090 229.877855 414.983150 230.823077 414.144179 231.768298 413.303200 232.713520 412.460236 233.658741 411.615311 234.603963 410.768448 235.549184 409.919669 236.494406 409.068998 237.439627 408.216456 238.384848 407.362066 239.330070 406.505850 240.275291 405.647830 241.220513 404.788027 242.165734 403.926463 243.110956 403.063158 244.056177 402.198135 245.001399 401.331414 245.946620 400.463015 246.891841 399.592958 247.837063 398.721265 248.782284 397.847955 249.727506 396.973048 250.672727 396.096564 251.617949 395.218522 252.563170 394.338941 253.508392 393.457841 254.453613 392.575240 255.398834 391.691158 256.344056 390.805613 257.289277 389.918622 258.234499 389.030206 259.179720 388.140381 260.124942 387.249165 261.070163 386.356577 262.015385 385.462633 262.960606 384.567351 263.905828 383.670749 264.851049 382.772843 265.796270 381.873650 266.741492 380.973187 267.686713 380.071470 268.631935 379.168516 269.577156 378.264342 270.522378 377.358962 271.467599 376.452394 272.412821 375.544652 273.358042 374.635753 274.303263 373.725712 275.248485 372.814543 276.193706 371.902264 277.138928 370.988887 278.084149 370.074429 279.029371 369.158904 279.974592 368.242326 280.919814 367.324710 281.865035 366.406071 282.810256 365.486422 283.755478 364.565777 284.700699 363.644150 285.645921 362.721556 286.591142 361.798007 287.536364 360.873517 288.481585 359.948099 289.426807 359.021767 290.372028 358.094534 291.317249 357.166412 292.262471 356.237414 293.207692 355.307554 294.152914 354.376843 295.098135 353.445294 296.043357 352.512920 296.988578 351.579732 297.933800 350.645743 298.879021 349.710964 299.824242 348.775408 300.769464 347.839086 301.714685 346.902009 302.659907 345.964190 303.605128 345.025639 304.550350 344.086368 305.495571 343.146388 306.440793 342.205709 307.386014 341.264344 308.331235 340.322302 309.276457 339.379594 310.221678 338.436232 311.166900 337.492224 312.112121 336.547583 313.057343 335.602317 314.002564 334.656438 314.947786 333.709955 315.893007 332.762878 316.838228 331.815217 317.783450 330.866982 318.728671 329.918183 319.673893 328.968829 320.619114 328.018929 321.564336 327.068493 322.509557 326.117530 323.454779 325.166050 324.400000 324.214061 325.345221 323.261573 326.290443 322.308594 327.235664 321.355134 328.180886 320.401200 329.126107 319.446802 330.071329 318.491948 331.016550 317.536646 331.961772 316.580906 332.906993 315.624735 333.852214 314.668141 334.797436 313.711133 335.742657 312.753718 336.687879 311.795906 337.633100 310.837702 338.578322 309.879116 339.523543 308.920155 340.468765 307.960827 341.413986 307.001139 342.359207 306.041099 343.304429 305.080713 344.249650 304.119990 345.194872 303.158937 346.140093 302.197561 347.085315 301.235869 348.030536 300.273868 348.975758 299.311564 349.920979 298.348966 350.866200 297.386080 351.811422 296.422911 352.756643 295.459468 353.701865 294.495757 354.647086 293.531784 355.592308 292.567556 356.537529 291.603079 357.482751 290.638360 358.427972 289.673404 359.373193 288.708219 360.318415 287.742809 361.263636 286.777182 362.208858 285.811343 363.154079 284.845299 364.099301 283.879054 365.044522 282.912616 365.989744 281.945989 366.934965 280.979180 367.880186 280.012194 368.825408 279.045036 369.770629 278.077713 370.715851 277.110230 371.661072 276.142592 372.606294 275.174804 373.551515 274.206872 374.496737 273.238802 375.441958 272.270598 376.387179 271.302265 377.332401 270.333808 378.277622 269.365234 379.222844 268.396546 380.168065 267.427749 381.113287 266.458849 382.058508 265.489850 383.003730 264.520757 383.948951 263.551575 384.894172 262.582309 385.839394 261.612962 386.784615 260.643540 387.729837 259.674048 388.675058 258.704489 389.620280 257.734868 390.565501 256.765189 391.510723 255.795458 392.455944 254.825677 393.401166 253.855852 394.346387 252.885987 395.291608 251.916086 396.236830 250.946152 397.182051 249.976190 398.127273 249.006205 399.072494 248.036199 400.017716 247.066178 400.962937 246.096144 401.908159 245.126102 402.853380 244.156056 403.798601 243.186009 404.743823 242.215965 405.689044 241.245927 406.634266 240.275901 407.579487 239.305888 408.524709 238.335893 409.469930 237.365919 410.415152 236.395970 411.360373 235.426050 412.305594 234.456161 413.250816 233.486306 414.196037 232.516491 415.141259 231.546717 416.086480 230.576988 417.031702 229.607307 417.976923 228.637678 418.922145 227.668103 419.867366 226.698586 420.812587 225.729130 421.757809 224.759738 422.703030 223.790413 423.648252 222.821159 424.593473 221.851977 425.538695 220.882871 426.483916 219.913844 427.429138 218.944899 428.374359 217.976039 429.319580 217.007266 430.264802 216.038583 431.210023 215.069993 432.155245 214.101499 433.100466 213.133104 434.045688 212.164809 434.990909 211.196619 435.936131 210.228535 436.881352 209.260559 437.826573 208.292696 438.771795 207.324946 439.717016 206.357313 440.662238 205.389799 441.607459 204.422406 442.552681 203.455137 443.497902 202.487994 444.443124 201.520980 445.388345 200.554097 446.333566 199.587348 447.278788 198.620734 448.224009 197.654257 449.169231 196.687921 450.114452 195.721727 451.059674 194.755677 452.004895 193.789774 452.950117 192.824020 453.895338 191.858417 454.840559 190.892966 455.785781 189.927671 456.731002 188.962533 457.676224 187.997553 458.621445 187.032735 459.566667 186.068080 460.511888 185.103590 461.457110 184.139266 462.402331 183.175112 463.347552 182.211128 464.292774 181.247317 465.237995 180.283680 466.183217 179.320219 467.128438 178.356937 468.073660 177.393834 469.018881 176.430913 469.964103 175.468175 470.909324 174.505622 471.854545 173.543256 472.799767 172.581079 473.744988 171.619091 474.690210 170.657295 475.635431 169.695692 476.580653 168.734285 477.525874 167.773074 478.471096 166.812060 479.416317 165.851247 480.361538 164.890635 481.306760 163.930225 482.251981 162.970020 483.197203 162.010020 484.142424 161.050227 485.087646 160.090643 486.032867 159.131268 486.978089 158.172105 487.923310 157.213155 488.868531 156.254419 489.813753 155.295898 490.758974 154.337595 491.704196 153.379509 492.649417 152.421643 493.594639 151.463997 494.539860 150.506574 495.485082 149.549374 496.430303 148.592398 497.375524 147.635649 498.320746 146.679126 499.265967 145.722831 500.211189 144.766766 501.156410 143.810931 502.101632 142.855328 503.046853 141.899958 503.992075 140.944822 504.937296 139.989921 505.882517 139.035256 506.827739 138.080829 507.772960 137.126640 508.718182 136.172690 509.663403 135.218981 510.608625 134.265513 511.553846 133.312288 512.499068 132.359306 513.444289 131.406569 514.389510 130.454078 515.334732 129.501833 516.279953 128.549835 517.225175 127.598086 518.170396 126.646587 519.115618 125.695337 520.060839 124.744339 521.006061 123.793593 521.951282 122.843100 522.896503 121.892860 523.841725 120.942876 524.786946 119.993147 525.732168 119.043674 526.677389 118.094459 527.622611 117.145502 528.567832 116.196804 529.513054 115.248365 530.458275 114.300187 531.403497 113.352270 532.348718 112.404616 533.293939 111.457224 534.239161 110.510095 535.184382 109.563231 536.129604 108.616632 537.074825 107.670299 538.020047 106.724232 538.965268 105.778432 539.910490 104.832901 540.855711 103.887637 541.800932 102.942643 542.746154 101.997919 543.691375 101.053465 544.636597 100.109283 545.581818 99.165372 546.527040 98.221733 547.472261 97.278368 548.417483 96.335276 549.362704 95.392459 550.307925 94.449917 551.253147 93.507649 552.198368 92.565658 553.143590 91.623944 554.088811 90.682507 555.034033 89.741347 555.979254 88.800465 556.924476 87.859863 557.869697 86.919539 558.814918 85.979496 559.760140 85.039733 560.705361 84.100250 561.650583 83.161049 562.595804 82.222130 563.541026 81.283493 564.486247 80.345139 565.431469 79.407068 566.376690 78.469281 567.321911 77.531778 568.267133 76.594560 569.212354 75.657627 570.157576 74.720979 571.102797 73.784617 572.048019 72.848542 572.993240 71.912753 573.938462 70.977251 574.883683 70.042037 575.828904 69.107111 576.774126 68.172473 577.719347 67.238125 578.664569 66.304065 579.609790 65.370294 580.555012 64.436814 581.500233 63.503623 582.445455 62.570724 583.390676 61.638115 584.335897 60.705797 585.281119 59.773771 586.226340 58.842037 587.171562 57.910595 588.116783 56.979446 589.062005 56.048589 590.007226 55.118026 590.952448 54.187756 591.897669 53.257780 592.842890 52.328097 593.788112 51.398710 594.733333 50.469617 595.678555 49.540818 596.623776 48.612315 597.568998 47.684108 598.514219 46.756196 599.459441 45.828580 600.404662 44.901260 601.349883 43.974236 602.295105 43.047510 603.240326 42.121080 604.185548 41.194947 605.130769 40.269112 606.075991 39.343574 607.021212 38.418334 607.966434 37.493393 608.911655 36.568749 609.856876 35.644404 610.802098 34.720357 611.747319 33.796610 612.692541 32.873161 613.637762 31.950012 614.582984 31.027162 615.528205 30.104612 616.473427 29.182361 617.418648 28.260410 618.363869 27.338760 619.309091 26.417409 620.254312 25.496360 621.199534 24.575610 622.144755 23.655162 623.089977 22.735014 624.035198 21.815168 624.980420 20.895622 625.925641 19.976378 626.870862 19.057435 627.816084 18.138794 628.761305 17.220455 629.706527 16.302417 630.651748 15.384682 631.596970 14.467248 632.542191 13.550117 633.487413 12.633288 634.432634 11.716761 635.377855 10.800537 636.323077 9.884615" class="line reactive nofill" /></g></g><g class="titles"><text x="400.0" y="26" class="title plot_title">Temperature change at the midpoint of the Steak</text></g><g transform="translate(131, 46)" class="plot overlay"><g class="series serie-0 color-0" /></g><g transform="translate(131, 46)" class="plot text-overlay"><g class="series serie-0 color-0" /></g><g transform="translate(131, 46)" class="plot tooltip-overlay"><g transform="translate(0 0)" style="opacity: 0" class="tooltip"><rect rx="0" ry="0" width="0" height="0" class="tooltip-box" /><g class="text" /></g></g><g transform="translate(10, 56)" class="legends"><g id="activate-serie-0" class="legend reactive activate-serie"><rect x="0.0" y="1.0" width="12" height="12" class="color-0 reactive" /><text x="17.0" y="11.2">midpoint</text></g></g><g transform="translate(790, 56)" class="legends" /></g></svg>